<svg width="130" height="26" viewBox="0 0 130 26" fill="none" xmlns="http://www.w3.org/2000/svg">
<path opacity="0.25" d="M120.096 12.8514L124.924 4.38663C125.069 4.13545 125.266 3.91819 125.5 3.74908C125.734 3.57997 126.001 3.46282 126.283 3.40528C126.16 3.16614 125.982 2.96005 125.765 2.80401C125.548 2.64796 125.297 2.54644 125.033 2.50781C124.526 2.80072 124.104 3.22512 123.812 3.73743L120.096 10.2495L119.73 9.60873L118.989 10.9105L120.096 12.8514Z" fill="white"/>
<path opacity="0.25" d="M118.069 21.7835V17.5612L111.759 6.48959C111.595 6.20687 111.5 5.88831 111.483 5.56076C111.466 5.23321 111.526 4.90627 111.66 4.60748C111.794 4.30869 111.997 4.0468 112.251 3.84389C112.506 3.64098 112.805 3.50299 113.123 3.44154L113.093 3.38954C112.963 3.16487 112.784 2.97285 112.57 2.82766C112.356 2.68248 112.112 2.58785 111.857 2.55078C111.385 2.82985 110.987 3.22238 110.7 3.69371C110.413 4.16504 110.245 4.70066 110.211 5.25326L116.489 16.2678V17.3951L116.784 17.9101V21.5486C116.935 21.7734 117.136 21.959 117.371 22.0905C117.606 22.2219 117.868 22.2955 118.137 22.3052C118.092 22.135 118.069 21.9596 118.069 21.7835Z" fill="white"/>
<path opacity="0.25" d="M114.783 2.39913L118.188 8.37108L118.609 7.63465L116.405 3.77637C116.028 3.11675 115.44 2.60719 114.738 2.33203L114.783 2.39913Z" fill="white"/>
<path opacity="0.25" d="M128.351 2.50769C128.206 2.42494 128.056 2.35317 127.9 2.29297C128.271 2.91304 128.455 3.62877 128.431 4.35296C128.528 4.51878 128.603 4.69706 128.654 4.88305C128.725 5.145 128.744 5.41857 128.709 5.68784C128.674 5.95711 128.587 6.21671 128.452 6.45153L122.143 17.56V21.7823C122.142 22.3293 121.927 22.8536 121.545 23.2404C121.163 23.6271 120.645 23.8448 120.104 23.8457C120.043 23.8457 119.983 23.8423 119.922 23.8356C119.392 24.1262 118.798 24.2779 118.195 24.2768C118.086 24.2768 117.976 24.2768 117.864 24.2617C118.338 24.7029 118.929 24.9946 119.565 25.101C120.201 25.2074 120.853 25.124 121.443 24.8609C122.033 24.5979 122.534 24.1666 122.885 23.6198C123.236 23.073 123.422 22.4345 123.421 21.7823V17.9073L129.553 7.1024C129.992 6.33104 130.112 5.41519 129.887 4.5545C129.662 3.6938 129.11 2.95807 128.351 2.50769Z" fill="white"/>
<path opacity="0.25" d="M91.7857 21.7738V5.92466C91.7857 5.43171 91.9792 4.95894 92.3235 4.61037C92.6679 4.2618 93.135 4.06597 93.622 4.06597H103.644C103.766 4.06646 103.887 4.07882 104.007 4.10288C104.01 3.98349 104 3.86411 103.975 3.74725C103.932 3.54211 103.846 3.3486 103.724 3.17945C103.601 3.0103 103.445 2.86935 103.264 2.7659L93.3717 2.7659C92.8846 2.75909 92.4039 2.8789 91.9757 3.11386C91.5474 3.34883 91.1858 3.69109 90.9255 4.10791V20.3983C90.9257 20.6864 91.0066 20.9686 91.1588 21.2121C91.3111 21.4556 91.5285 21.6504 91.7857 21.7738Z" fill="white"/>
<path opacity="0.25" d="M96.7444 18.875H95.455V19.8815C95.455 20.015 95.5074 20.143 95.6006 20.2374C95.6939 20.3317 95.8203 20.3848 95.9522 20.3848H104.037C104.14 20.3857 104.244 20.3952 104.346 20.4133C104.354 20.0552 104.237 19.7059 104.015 19.4269C103.904 19.2939 103.772 19.1805 103.624 19.0914H97.0062C96.9445 19.0918 96.8846 19.0704 96.8368 19.0309C96.789 18.9914 96.7563 18.9363 96.7444 18.875Z" fill="white"/>
<path opacity="0.25" d="M104.371 11.8477C104.446 12.542 104.301 13.2427 103.955 13.8473C103.982 14.1063 103.955 14.3682 103.876 14.616C103.797 14.8638 103.667 15.0921 103.495 15.2859C103.323 15.4798 103.113 15.635 102.878 15.7414C102.643 15.8479 102.389 15.9032 102.132 15.9039H96.1238C96.0404 15.9039 95.9577 15.9198 95.8801 15.9509V16.9037H102.715C102.899 16.9051 103.082 16.9202 103.264 16.949C103.742 16.7646 104.168 16.4626 104.502 16.0702C104.836 15.6778 105.069 15.2073 105.179 14.7011C105.289 14.1949 105.272 13.6691 105.131 13.1709C104.99 12.6728 104.729 12.218 104.371 11.8477Z" fill="white"/>
<path opacity="0.25" d="M95.4547 11.5207C95.4547 11.6987 95.5245 11.8693 95.6488 11.9952C95.7732 12.121 95.9418 12.1917 96.1176 12.1917H102.084C102.206 12.1925 102.327 12.2042 102.447 12.2269C102.45 12.1076 102.439 11.9883 102.415 11.8713C102.372 11.6659 102.285 11.4723 102.162 11.3034C102.038 11.1345 101.881 10.9941 101.699 10.8916H97.0126C96.9499 10.8915 96.8893 10.8695 96.8407 10.8295C96.7922 10.7895 96.7586 10.7339 96.7457 10.6719H95.4547V11.5207Z" fill="white"/>
<path opacity="0.25" d="M106.281 20.1055C106.281 20.1675 106.294 20.2279 106.295 20.29C106.314 20.9185 106.165 21.5405 105.863 22.09C105.879 22.2744 105.869 22.4603 105.833 22.6419C105.737 23.0633 105.501 23.4388 105.165 23.7059C104.829 23.9729 104.412 24.1154 103.985 24.1097H93.9617H93.859H93.7894L93.6104 24.1214C93.3112 24.1209 93.0169 24.0454 92.7536 23.9017H92.6293H92.5978H92.5679C92.5215 23.9017 92.4751 23.9017 92.4287 23.9017C91.8331 23.9021 91.2476 23.7455 90.73 23.4471C90.964 24.0292 91.3638 24.5277 91.8784 24.8793C92.3931 25.2309 92.9994 25.4196 93.6203 25.4215C93.6767 25.4215 93.733 25.4215 93.7861 25.4215C93.8391 25.4215 93.9004 25.4215 93.9518 25.4215H104.027C104.446 25.4229 104.861 25.3387 105.248 25.174C105.634 25.0093 105.984 24.7674 106.276 24.4629C106.568 24.1583 106.796 23.7974 106.947 23.4015C107.099 23.0056 107.169 22.5829 107.156 22.1587C107.131 21.387 106.818 20.6533 106.281 20.1055Z" fill="white"/>
<path opacity="0.25" d="M105.936 3.72656C105.951 3.87593 105.956 4.02608 105.952 4.17614C105.934 4.71865 105.785 5.24837 105.518 5.71945C105.545 5.97838 105.519 6.2402 105.439 6.48794C105.36 6.73568 105.23 6.96382 105.058 7.15756C104.887 7.3513 104.676 7.50632 104.442 7.61259C104.207 7.71885 103.952 7.77398 103.695 7.7744H96.2008C96.0892 7.77471 95.9792 7.80111 95.8793 7.85157V8.69033H100.942C101.49 8.69001 102.029 8.82231 102.515 9.07616H103.569C105.278 9.07616 106.766 7.74253 106.818 6.01469C106.829 5.593 106.757 5.17321 106.606 4.78018C106.454 4.38716 106.227 4.02888 105.936 3.72656Z" fill="white"/>
<path opacity="0.25" d="M52.8805 21.8577V5.72001C52.8809 5.22809 53.0742 4.75643 53.4178 4.40859C53.7615 4.06074 54.2275 3.86513 54.7135 3.86468C54.8169 3.86471 54.9201 3.87426 55.0217 3.8932C54.9907 3.6193 54.8897 3.3583 54.7287 3.13592C54.5677 2.91354 54.3523 2.73745 54.1036 2.625C53.6264 2.72372 53.1786 2.93352 52.7954 3.23779C52.4122 3.54205 52.1043 3.93243 51.896 4.378V20.3916C51.8989 20.707 51.9939 21.0145 52.1691 21.2754C52.3443 21.5363 52.5918 21.7389 52.8805 21.8577Z" fill="white"/>
<path opacity="0.25" d="M56.5461 18.8711V20.1745H64.8012C64.9046 20.1754 65.0077 20.1849 65.1095 20.203C65.0784 19.9333 64.9797 19.6762 64.8228 19.4559C64.6659 19.2357 64.4559 19.0598 64.2129 18.9449C64.112 18.8982 64.0023 18.8742 63.8913 18.8744L56.5461 18.8711Z" fill="white"/>
<path opacity="0.25" d="M66.8596 19.668C67.0159 20.3941 66.932 21.1521 66.6209 21.8253C66.6296 21.8959 66.634 21.9671 66.6342 22.0383C66.6337 22.5302 66.4405 23.0019 66.0968 23.3497C65.7532 23.6976 65.2872 23.8932 64.8012 23.8936H54.6783C54.5149 23.8897 54.3527 23.8637 54.196 23.8165H53.4651C52.9289 23.816 52.4005 23.686 51.9238 23.4373C52.1816 23.9635 52.5791 24.4066 53.0718 24.7168C53.5645 25.027 54.1328 25.1922 54.7131 25.1937H64.8012C65.435 25.1949 66.0541 25.0002 66.5757 24.6358C67.0974 24.2714 67.4968 23.7546 67.7205 23.1543C67.9442 22.5541 67.9817 21.899 67.8278 21.2766C67.674 20.6542 67.3362 20.0942 66.8596 19.6713V19.668Z" fill="white"/>
<path opacity="0.25" d="M56.8463 4.06896V16.959H57.8291V5.71964C57.8285 5.27279 57.7339 4.83119 57.5516 4.42422C57.3693 4.01726 57.1034 3.65426 56.7717 3.35938C56.8207 3.59266 56.8457 3.83046 56.8463 4.06896Z" fill="white"/>
<path opacity="0.25" d="M3.26332 6.41302C3.03664 5.91064 3.01613 5.33777 3.20629 4.8201C3.39644 4.30244 3.78173 3.88228 4.2776 3.65183C4.47509 3.56248 4.68549 3.50584 4.90075 3.48408C4.7791 3.23527 4.60093 3.0192 4.38083 2.85357C4.16073 2.68795 3.90498 2.57749 3.63456 2.53125C3.15445 2.77762 2.74015 3.13758 2.42682 3.5806C2.11349 4.02362 1.91037 4.53661 1.83471 5.07604L8.97941 20.8765C9.09784 21.1326 9.27552 21.3559 9.49739 21.5276C9.71925 21.6993 9.97875 21.8143 10.2539 21.8629L3.26332 6.41302Z" fill="white"/>
<path opacity="0.25" d="M12.3706 16.5441L17.7354 4.67737C17.8848 4.35232 18.1141 4.07151 18.4014 3.8618C18.6886 3.6521 19.0242 3.52051 19.3761 3.47962C19.2027 3.11568 18.9098 2.82396 18.5475 2.65428C18.41 2.592 18.2652 2.54802 18.1166 2.52344C17.4337 2.86567 16.8883 3.43558 16.5719 4.13721L12.3706 13.4189L12.074 12.763L11.368 14.3264L12.3706 16.5441Z" fill="white"/>
<path opacity="0.25" d="M6.69225 2.70128L10.5869 11.317L11.0013 10.3994L8.17224 4.14059C7.85043 3.4289 7.2937 2.85293 6.59778 2.51172C6.63922 2.57379 6.66242 2.63585 6.69225 2.70128Z" fill="white"/>
<path opacity="0.25" d="M21.0708 2.50781C21.4171 3.17292 21.5574 3.92817 21.4735 4.67516C21.5977 4.94762 21.6619 5.24408 21.6619 5.54411C21.6619 5.84415 21.5977 6.14061 21.4735 6.41307L14.2857 22.326C14.1201 22.6808 13.8595 22.9815 13.5334 23.1939C13.2073 23.4062 12.8288 23.5217 12.4411 23.5271H12.292H12.1611C11.6985 23.74 11.1975 23.8542 10.6894 23.8626H10.4739C10.2916 23.8591 10.1098 23.8412 9.9303 23.8089C10.55 24.4462 11.3921 24.8119 12.2754 24.8271H12.4726C13.1027 24.8167 13.717 24.6262 14.2448 24.2778C14.7725 23.9294 15.1923 23.4371 15.4558 22.8577L22.6469 6.95323C23.0069 6.15028 23.0437 5.23696 22.7494 4.40702C22.4552 3.57708 21.8531 2.89584 21.0708 2.50781Z" fill="white"/>
<path opacity="0.25" d="M31.3249 14.0001C31.3244 13.068 31.5662 12.1522 32.026 11.3446C32.4857 10.537 33.1473 9.86609 33.9443 9.39917C34.7413 8.93225 35.6456 8.68578 36.5665 8.68451C37.4873 8.68324 38.3923 8.92721 39.1905 9.39192C38.5287 8.40686 37.5415 7.69307 36.4062 7.37891C34.9631 7.41918 33.5736 7.94104 32.4539 8.86331C31.3341 9.78557 30.5468 11.0566 30.2145 12.4786C30.2819 13.6649 30.7683 14.7871 31.5851 15.6407C31.4131 15.1112 31.3253 14.5574 31.3249 14.0001Z" fill="white"/>
<path opacity="0.25" d="M41.5324 9.69141C42.0262 10.9811 42.1272 12.3909 41.8224 13.7392C41.8224 13.8265 41.8224 13.907 41.8224 14.0009C41.8211 15.4104 41.2674 16.7618 40.2827 17.7585C39.298 18.7551 37.9629 19.3157 36.5704 19.317C36.1231 19.3191 35.6775 19.2627 35.2445 19.1492H35.1169C33.7932 19.1508 32.4976 18.7627 31.388 18.032C31.9203 18.7317 32.5857 19.3164 33.3449 19.7515C34.1041 20.1867 34.9417 20.4635 35.8083 20.5657C36.675 20.6679 37.553 20.5933 38.3907 20.3464C39.2284 20.0995 40.0087 19.6853 40.6857 19.1282C41.3627 18.571 41.9225 17.8823 42.3322 17.1026C42.7419 16.3229 42.9932 15.4681 43.0712 14.5885C43.1492 13.7089 43.0523 12.8224 42.7863 11.9813C42.5203 11.1403 42.0906 10.3616 41.5225 9.69141H41.5324Z" fill="white"/>
<path opacity="0.25" d="M26.2789 13.8429C26.2774 11.9562 26.7844 10.1049 27.7454 8.4884C28.7064 6.87186 30.085 5.55135 31.7325 4.66911C33.3801 3.78688 35.2343 3.37637 37.0953 3.4818C38.9563 3.58723 40.7536 4.2046 42.2936 5.26742C40.6018 3.46894 38.3099 2.37121 35.8632 2.1875C33.3315 2.3359 30.9185 3.32429 28.9974 4.99987C27.0763 6.67546 25.754 8.94493 25.2348 11.4574C25.2183 11.7024 25.205 11.9473 25.205 12.1972C25.2039 14.4305 25.942 16.5998 27.3015 18.3587C26.6269 16.9513 26.2773 15.4071 26.2789 13.8429Z" fill="white"/>
<path opacity="0.25" d="M45.7126 6.77344C46.9286 9.19659 47.2944 11.9662 46.7501 14.6276C46.5524 17.235 45.3904 19.671 43.4962 21.4494C41.6019 23.2277 39.1147 24.2175 36.5311 24.2213C36.2825 24.2213 36.0339 24.2078 35.7936 24.1911C35.5732 24.2028 35.3511 24.2112 35.1307 24.2112C32.6746 24.2109 30.2798 23.4358 28.2793 21.9935C30.3322 24.1112 33.1046 25.3583 36.0332 25.4816C38.9618 25.6049 41.827 24.5951 44.0465 22.6573C46.2661 20.7195 47.6736 17.9992 47.983 15.0489C48.2925 12.0986 47.4807 9.13975 45.7126 6.77344Z" fill="white"/>
<path opacity="0.25" d="M72.397 21.8577V5.72001C72.3974 5.22809 72.5907 4.75643 72.9343 4.40859C73.278 4.06074 73.7439 3.86513 74.2299 3.86468C74.3333 3.86471 74.4365 3.87426 74.5382 3.8932C74.5072 3.6193 74.4062 3.3583 74.2452 3.13592C74.0842 2.91354 73.8687 2.73745 73.6201 2.625C73.1429 2.72372 72.695 2.93352 72.3119 3.23779C71.9287 3.54205 71.6208 3.93243 71.4125 4.378V20.3916C71.4154 20.707 71.5104 21.0145 71.6856 21.2754C71.8607 21.5363 72.1083 21.7389 72.397 21.8577Z" fill="white"/>
<path opacity="0.25" d="M76.0626 18.8711V20.1745H84.3177C84.421 20.1754 84.5241 20.1849 84.6259 20.203C84.5949 19.9333 84.4962 19.6762 84.3393 19.4559C84.1823 19.2357 83.9724 19.0598 83.7293 18.9449C83.6284 18.8982 83.5188 18.8742 83.4078 18.8744L76.0626 18.8711Z" fill="white"/>
<path opacity="0.25" d="M86.3761 19.668C86.5324 20.3941 86.4486 21.1521 86.1375 21.8253C86.1461 21.8959 86.1505 21.9671 86.1507 22.0383C86.1503 22.5302 85.957 23.0019 85.6134 23.3497C85.2697 23.6976 84.8037 23.8932 84.3177 23.8936H74.1949C74.0314 23.8897 73.8693 23.8637 73.7126 23.8165H72.9817C72.4455 23.816 71.9171 23.686 71.4404 23.4373C71.6982 23.9635 72.0957 24.4066 72.5884 24.7168C73.0811 25.027 73.6494 25.1922 74.2297 25.1937H84.3177C84.9516 25.1949 85.5707 25.0002 86.0923 24.6358C86.614 24.2714 87.0133 23.7546 87.2371 23.1543C87.4608 22.5541 87.4982 21.899 87.3444 21.2766C87.1906 20.6542 86.8528 20.0942 86.3761 19.6713V19.668Z" fill="white"/>
<path opacity="0.25" d="M76.3628 4.06896V16.959H77.3456V5.71964C77.345 5.27279 77.2504 4.83119 77.0681 4.42422C76.8857 4.01726 76.6199 3.65426 76.2882 3.35938C76.3372 3.59266 76.3622 3.83046 76.3628 4.06896Z" fill="white"/>
<path d="M83.0585 17.2329H76.0845V4.07115C76.0819 3.23523 75.7529 2.43426 75.1692 1.84286C74.5856 1.25146 73.7946 0.9176 72.9687 0.914063C72.1425 0.916719 71.3508 1.25025 70.7667 1.84179C70.1826 2.43333 69.8535 3.23481 69.8513 4.07115V20.3883C69.8535 21.2247 70.1826 22.0261 70.7667 22.6177C71.3508 23.2092 72.1425 23.5428 72.9687 23.5454H83.0585C83.8731 23.5264 84.6479 23.1855 85.2174 22.5957C85.7868 22.0058 86.1057 21.2139 86.1057 20.3892C86.1057 19.5645 85.7868 18.7725 85.2174 18.1827C84.6479 17.5928 83.8731 17.2519 83.0585 17.2329ZM83.0585 22.2453H72.9356C72.4556 22.2357 71.9986 22.036 71.6624 21.6892C71.3262 21.3423 71.1377 20.8759 71.1374 20.39V4.07115C71.13 3.82269 71.172 3.57527 71.2608 3.34354C71.3497 3.11182 71.4836 2.9005 71.6546 2.72212C71.8256 2.54373 72.0303 2.40192 72.2564 2.30507C72.4826 2.20823 72.7257 2.15833 72.9712 2.15833C73.2168 2.15833 73.4599 2.20823 73.686 2.30507C73.9122 2.40192 74.1169 2.54373 74.2879 2.72212C74.4589 2.9005 74.5928 3.11182 74.6816 3.34354C74.7705 3.57527 74.8124 3.82269 74.805 4.07115V18.533H83.0601C83.537 18.5475 83.9895 18.7494 84.3217 19.0959C84.6539 19.4425 84.8397 19.9063 84.8397 20.3892C84.8397 20.872 84.6539 21.3359 84.3217 21.6824C83.9895 22.0289 83.537 22.2308 83.0601 22.2453H83.0585Z" fill="#FFEC37"/>
<path d="M126.442 1.30307C125.678 0.859265 124.772 0.739654 123.921 0.970394C123.07 1.20114 122.345 1.76345 121.902 2.53437L118.187 9.04648L114.493 2.57127C114.05 1.80036 113.325 1.23804 112.474 1.0073C111.623 0.776559 110.717 0.89617 109.953 1.33998C109.191 1.78701 108.635 2.52126 108.406 3.38224C108.177 4.24322 108.294 5.16089 108.732 5.93469L114.864 16.7027V20.5777C114.883 21.457 115.242 22.2936 115.863 22.9085C116.484 23.5234 117.319 23.8677 118.188 23.8677C119.056 23.8677 119.891 23.5234 120.512 22.9085C121.133 22.2936 121.492 21.457 121.511 20.5777V16.7027L127.643 5.89778C128.083 5.12652 128.204 4.21052 127.978 3.3497C127.753 2.48888 127.201 1.75314 126.442 1.30307ZM126.546 5.24691L120.237 16.3554V20.5777C120.237 21.1249 120.022 21.6498 119.64 22.0367C119.257 22.4237 118.739 22.6411 118.198 22.6411C117.658 22.6411 117.139 22.4237 116.757 22.0367C116.375 21.6498 116.16 21.1249 116.16 20.5777V16.3554L109.852 5.28381C109.582 4.80971 109.508 4.24638 109.648 3.71761C109.788 3.18884 110.13 2.73791 110.598 2.46391C110.905 2.28775 111.252 2.19635 111.605 2.19886C111.964 2.19817 112.317 2.29277 112.629 2.47321C112.94 2.65365 113.199 2.91362 113.38 3.22718L118.187 11.655L123.014 3.19027C123.196 2.87683 123.455 2.61695 123.766 2.43653C124.078 2.25611 124.431 2.16144 124.789 2.16196C125.146 2.16432 125.495 2.26116 125.803 2.44283C126.111 2.62449 126.367 2.88465 126.545 3.19738C126.722 3.51011 126.816 3.86451 126.816 4.22528C126.817 4.58605 126.723 4.9406 126.546 5.25362V5.24691Z" fill="#FFEC37"/>
<path d="M102.716 17.24H95.8161C95.7456 17.24 95.678 17.2118 95.628 17.1615C95.578 17.1112 95.5497 17.0429 95.5493 16.9716V15.6732C95.5493 15.5873 95.583 15.505 95.6429 15.4442C95.7029 15.3835 95.7843 15.3494 95.8691 15.3494L100.81 15.3494C102.517 15.3494 104.007 14.0175 104.058 12.2896C104.071 11.8673 104 11.4466 103.849 11.0525C103.699 10.6584 103.471 10.2989 103.181 9.99529C102.891 9.69168 102.543 9.45013 102.159 9.28494C101.774 9.11974 101.361 9.03427 100.944 9.03357L95.8227 9.03357C95.7502 9.03357 95.6806 9.00441 95.6294 8.9525C95.5781 8.90059 95.5493 8.83019 95.5493 8.75678V7.49026C95.5497 7.42143 95.5769 7.35555 95.625 7.30689C95.6731 7.25822 95.7382 7.23068 95.8062 7.23024H102.372C104.081 7.23024 105.571 5.8983 105.621 4.16878C105.634 3.74621 105.563 3.32533 105.412 2.93111C105.261 2.53688 105.033 2.17734 104.743 1.87382C104.452 1.5703 104.104 1.32898 103.719 1.16417C103.334 0.99936 102.921 0.914424 102.503 0.914401L92.1783 0.914401C91.7783 0.90819 91.3816 0.987595 91.0141 1.14741C90.6466 1.30723 90.3166 1.54385 90.0457 1.84178C89.7748 2.1397 89.5692 2.49219 89.4423 2.87615C89.3155 3.26012 89.2702 3.66689 89.3095 4.06981V12.1923V20.3987C89.3121 21.2355 89.6418 22.0372 90.2265 22.6288C90.8112 23.2203 91.6035 23.5536 92.4302 23.5558C92.4865 23.5558 92.5429 23.5558 92.5959 23.5558C92.649 23.5558 92.7103 23.5558 92.7617 23.5558H102.836C103.254 23.556 103.668 23.4712 104.053 23.3065C104.438 23.1418 104.786 22.9005 105.077 22.597C105.368 22.2935 105.595 21.9338 105.746 21.5395C105.897 21.1452 105.968 20.7241 105.956 20.3014C105.916 18.5719 104.424 17.24 102.716 17.24ZM102.795 22.2557H92.7716H92.6688H92.5992L92.4202 22.2658C91.9358 22.2623 91.4724 22.0651 91.1309 21.7173C90.7895 21.3695 90.5976 20.8991 90.5972 20.4088V4.06981C90.5976 3.57714 90.7913 3.10481 91.1356 2.7566C91.48 2.40839 91.9468 2.2128 92.4335 2.2128L102.452 2.2128C102.879 2.20677 103.296 2.34917 103.632 2.61625C103.968 2.88334 104.204 3.259 104.3 3.68062C104.357 3.95151 104.353 4.23186 104.29 4.50121C104.226 4.77056 104.104 5.02211 103.932 5.23752C103.76 5.45292 103.542 5.62674 103.296 5.74628C103.049 5.86582 102.779 5.92807 102.505 5.92849H95.0106C94.9126 5.92827 94.8156 5.94765 94.725 5.9855C94.6344 6.02336 94.5521 6.07896 94.4828 6.1491C94.4135 6.21924 94.3586 6.30254 94.3212 6.39423C94.2838 6.48592 94.2646 6.58418 94.2648 6.68337V9.66767C94.2648 9.84563 94.3347 10.0163 94.459 10.1421C94.5833 10.268 94.752 10.3387 94.9278 10.3387L100.894 10.3387C101.321 10.333 101.738 10.4755 102.074 10.7425C102.41 11.0096 102.646 11.385 102.742 11.8065C102.798 12.0773 102.794 12.3574 102.73 12.6264C102.666 12.8953 102.543 13.1464 102.37 13.3613C102.198 13.5761 101.981 13.7494 101.734 13.8684C101.487 13.9875 101.217 14.0493 100.944 14.0493L94.9327 14.0493C94.7569 14.0493 94.5883 14.12 94.464 14.2459C94.3397 14.3717 94.2698 14.5424 94.2698 14.7203V18.0318C94.2698 18.1652 94.3222 18.2932 94.4154 18.3876C94.5087 18.482 94.6351 18.535 94.767 18.535H102.851C103.125 18.5352 103.395 18.5973 103.642 18.7167C103.89 18.8361 104.107 19.0099 104.279 19.2253C104.451 19.4408 104.574 19.6924 104.638 19.9619C104.701 20.2314 104.705 20.5119 104.648 20.7829C104.553 21.2063 104.317 21.5837 103.98 21.8519C103.642 22.1201 103.224 22.2627 102.795 22.2557Z" fill="#FFEC37"/>
<path d="M63.5532 17.2329H56.5825V4.07115C56.5803 3.23481 56.2512 2.43333 55.6671 1.84179C55.083 1.25025 54.2913 0.916719 53.4651 0.914063C52.6387 0.916717 51.8468 1.25019 51.2625 1.84168C50.6781 2.43318 50.3486 3.23465 50.346 4.07115V20.3883C50.3486 21.2248 50.6781 22.0263 51.2625 22.6178C51.8468 23.2093 52.6387 23.5428 53.4651 23.5454H63.5532C64.3677 23.5264 65.1426 23.1855 65.7121 22.5957C66.2815 22.0058 66.6003 21.2139 66.6003 20.3892C66.6003 19.5645 66.2815 18.7725 65.7121 18.1827C65.1426 17.5928 64.3677 17.2519 63.5532 17.2329ZM63.5532 22.2453H53.4303C52.9502 22.2357 52.4929 22.0361 52.1565 21.6893C51.82 21.3425 51.6312 20.8761 51.6304 20.39V4.07115C51.623 3.82269 51.665 3.57527 51.7539 3.34354C51.8427 3.11182 51.9766 2.9005 52.1476 2.72212C52.3186 2.54373 52.5233 2.40192 52.7494 2.30507C52.9756 2.20823 53.2187 2.15833 53.4643 2.15833C53.7098 2.15833 53.9529 2.20823 54.1791 2.30507C54.4052 2.40192 54.6099 2.54373 54.7809 2.72212C54.9519 2.9005 55.0858 3.11182 55.1746 3.34354C55.2635 3.57527 55.3055 3.82269 55.2981 4.07115V18.533H63.5532C64.03 18.5475 64.4825 18.7494 64.8147 19.0959C65.1469 19.4425 65.3327 19.9063 65.3327 20.3892C65.3327 20.872 65.1469 21.3359 64.8147 21.6824C64.4825 22.0289 64.03 22.2308 63.5532 22.2453Z" fill="#FFEC37"/>
<path d="M19.215 1.16721C18.4087 0.796672 17.4903 0.764043 16.6603 1.07645C15.8303 1.38885 15.1561 2.02091 14.7849 2.83466L10.5886 12.118L6.39229 2.83466C6.02329 2.01871 5.34917 1.38454 4.51822 1.07168C3.68728 0.758812 2.76758 0.792875 1.96145 1.16637C1.15532 1.53987 0.528791 2.22221 0.219693 3.06328C-0.0894048 3.90435 -0.0557519 4.83525 0.313249 5.65121L7.50435 21.5557C7.76861 22.1345 8.1886 22.6262 8.71621 22.9745C9.24383 23.3228 9.85771 23.5137 10.4875 23.5251H10.6864C11.3163 23.5139 11.9302 23.3231 12.4579 22.9748C12.9855 22.6264 13.4055 22.1346 13.6696 21.5557L20.8607 5.65121C21.2273 4.83535 21.26 3.90578 20.9517 3.06559C20.6433 2.2254 20.0189 1.5429 19.215 1.16721ZM19.6956 5.10937L12.5045 21.0139C12.3402 21.3699 12.0806 21.6721 11.7551 21.8862C11.4296 22.1003 11.0513 22.2177 10.6632 22.225H10.514C10.1259 22.2177 9.74763 22.1003 9.42214 21.8862C9.09665 21.6721 8.83702 21.3699 8.67276 21.0139L1.48166 5.10937C1.25561 4.60697 1.23562 4.03434 1.42607 3.51705C1.61651 2.99975 2.00185 2.58001 2.49759 2.34986C2.76267 2.22632 3.051 2.16223 3.34283 2.16198C3.73818 2.16164 4.12537 2.27581 4.45869 2.49102C4.792 2.70623 5.05752 3.01348 5.22388 3.3765L10.5886 15.2432L15.9534 3.3765C16.1197 3.01348 16.3852 2.70623 16.7186 2.49102C17.0519 2.27581 17.4391 2.16164 17.8344 2.16198C18.1268 2.16199 18.4157 2.22609 18.6813 2.34986C19.1767 2.58032 19.5617 3.00019 19.7518 3.51745C19.942 4.03472 19.9217 4.60718 19.6956 5.10937Z" fill="#FFEC37"/>
<path d="M35.1255 0.519531C32.8438 0.519531 30.6133 1.20439 28.7161 2.48749C26.8189 3.7706 25.3403 5.59432 24.4671 7.72805C23.5939 9.86177 23.3655 12.2097 23.8106 14.4748C24.2557 16.74 25.3545 18.8206 26.9679 20.4537C28.5813 22.0868 30.637 23.1989 32.8748 23.6495C35.1127 24.1001 37.4323 23.8688 39.5404 22.985C41.6484 22.1012 43.4502 20.6045 44.7178 18.6842C45.9855 16.7639 46.6621 14.5062 46.6621 12.1967C46.6623 10.6632 46.3641 9.14463 45.7844 7.72779C45.2047 6.31095 44.3549 5.02358 43.2836 3.93921C42.2123 2.85484 40.9404 1.99471 39.5406 1.40795C38.1408 0.8212 36.6406 0.519311 35.1255 0.519531ZM35.1255 22.5738C33.0978 22.5741 31.1154 21.9658 29.4293 20.8258C27.7431 19.6857 26.4288 18.0652 25.6526 16.169C24.8763 14.2729 24.6731 12.1863 25.0685 10.1733C25.4639 8.16019 26.4402 6.31101 27.8739 4.85958C29.3076 3.40815 31.1344 2.41966 33.1231 2.01912C35.1119 1.61858 37.1734 1.82399 39.0468 2.60935C40.9202 3.39472 42.5215 4.72478 43.6481 6.43133C44.7747 8.13787 45.376 10.1442 45.376 12.1967C45.3729 14.9476 44.292 17.585 42.3704 19.5304C40.4488 21.4758 37.8433 22.5703 35.1255 22.5738Z" fill="#FFEC37"/>
<path d="M35.127 5.58203C33.8339 5.5817 32.5696 5.96954 31.4942 6.69652C30.4188 7.42349 29.5805 8.45693 29.0854 9.66614C28.5903 10.8754 28.4606 12.206 28.7127 13.4899C28.9648 14.7737 29.5873 15.953 30.5017 16.8787C31.416 17.8044 32.5809 18.4349 33.8493 18.6903C35.1176 18.9458 36.4323 18.8149 37.627 18.314C38.8218 17.8132 39.843 16.965 40.5615 15.8767C41.28 14.7883 41.6635 13.5088 41.6635 12.1998C41.6613 10.4457 40.972 8.76393 39.7467 7.52338C38.5214 6.28283 36.8601 5.58469 35.127 5.58203ZM35.127 17.5159C34.0883 17.5159 33.0729 17.2041 32.2092 16.62C31.3455 16.0358 30.6723 15.2056 30.2748 14.2342C29.8773 13.2628 29.7733 12.1939 29.9759 11.1627C30.1786 10.1315 30.6788 9.18428 31.4133 8.44082C32.1478 7.69735 33.0836 7.19105 34.1024 6.98593C35.1212 6.78081 36.1772 6.88608 37.1369 7.28844C38.0966 7.6908 38.9169 8.37217 39.494 9.24639C40.0711 10.1206 40.3791 11.1484 40.3791 12.1998C40.3778 13.6093 39.824 14.9607 38.8393 15.9574C37.8547 16.954 36.5196 17.5145 35.127 17.5159Z" fill="#FFEC37"/>
</svg>
